<?xml version="1.0" standalone="no"?><!DOCTYPE svg PUBLIC "-//W3C//DTD SVG 1.1//EN" "http://www.w3.org/Graphics/SVG/1.1/DTD/svg11.dtd"><svg t="1739869182944" class="icon" viewBox="0 0 1024 1024" version="1.1" xmlns="http://www.w3.org/2000/svg" p-id="1095" xmlns:xlink="http://www.w3.org/1999/xlink" width="200" height="200"><path d="M512 0C229.228475 0 0 229.228475 0 512s229.228475 512 512 512 512-229.228475 512-512S794.771525 0 512 0z m201.589153 713.589153a43.52 43.52 0 0 1-61.353221 0L514.169492 575.522712l-138.066441 138.066441a43.52 43.52 0 0 1-61.35322 0 43.52 43.52 0 0 1 0-61.353221L452.816271 514.169492l-138.06644-138.066441a43.389831 43.389831 0 0 1 61.35322-61.35322L514.169492 452.816271l138.06644-138.06644a43.52 43.52 0 0 1 61.353221 0 43.52 43.52 0 0 1 0 61.35322L575.522712 514.169492l138.066441 138.06644a43.52 43.52 0 0 1 0 61.353221z" fill="#0494fd" p-id="1096"></path></svg>